<svg version="1.2" xmlns="http://www.w3.org/2000/svg" viewBox="0 0 1080 1080" width="1080" height="1080"><style>.a{fill:#fff}</style><path  d="m540 1080c-298.6 0-540-241.4-540-540 0-298.6 241.4-540 540-540 298.6 0 540 241.4 540 540 0 298.6-241.4 540-540 540z"/><path class="a" d="m239.5 569.6l64.8-133.2v133.2zm166.1 0h-36v-176.8h-104.4l-90 176.8v55.9h129.1v62.5h65.3v-62.5h36zm24.7-30.2c0 89.1 34.2 152.1 107.1 152.1 72.9 0 107.6-63 107.6-152.1 0-90.5-34.7-152.1-107.6-152.1-72.9 0-107.1 61.6-107.1 152.1zm67.1 0c0-61.6 12.6-93.6 40-93.6 27 0 40.5 32 40.5 93.6 0 60.8-13.5 93.6-40.5 93.6-27.4 0-40-32.8-40-93.6zm241.2 30.2l64.8-133.2v133.2zm166 0h-36v-176.9h-104.4l-90 176.9v55.8h129.2v62.5h65.2v-62.5h36z"/></svg>